<svg xmlns="http://www.w3.org/2000/svg" viewBox="0 0 1600 900" width="1600" height="900" preserveAspectRatio="xMidYMid slice">
  <defs>
    <linearGradient id="hsky" x1="0" y1="0" x2="0" y2="1">
      <stop offset="0" stop-color="#2a1f18"></stop>
      <stop offset="0.5" stop-color="#1a1410"></stop>
      <stop offset="1" stop-color="#0a0a08"></stop>
    </linearGradient>
    <radialGradient id="hsun" cx="0.7" cy="0.4" r="0.3">
      <stop offset="0" stop-color="#D97757" stop-opacity="0.6"></stop>
      <stop offset="1" stop-color="#D97757" stop-opacity="0"></stop>
    </radialGradient>
  </defs>
  <rect width="1600" height="900" fill="url(#hsky)"></rect>
  <rect width="1600" height="900" fill="url(#hsun)"></rect>
  
  <polygon points="0,900 200,500 380,900" fill="#0c0a08" opacity="0.95"></polygon>
  <polygon points="280,900 520,400 760,900" fill="#0e0c0a" opacity="0.9"></polygon>
  <polygon points="640,900 880,460 1120,900" fill="#100e0b" opacity="0.85"></polygon>
  <polygon points="980,900 1240,420 1500,900" fill="#0e0c0a" opacity="0.9"></polygon>
  <polygon points="1340,900 1500,540 1600,900" fill="#0c0a08"></polygon>
  
  <rect x="780" y="380" width="40" height="320" fill="#161210"></rect>
  <polygon points="780,380 800,340 820,380" fill="#161210"></polygon>
  <rect x="788" y="420" width="6" height="14" fill="#D97757" opacity="0.7"></rect>
  
  <g fill="#D97757" opacity="0.8">
    <circle cx="120" cy="180" r="2"></circle>
    <circle cx="380" cy="240" r="1.5"></circle>
    <circle cx="720" cy="180" r="2.5"></circle>
    <circle cx="980" cy="280" r="1.5"></circle>
    <circle cx="1280" cy="220" r="2"></circle>
    <circle cx="1450" cy="320" r="1.5"></circle>
  </g>
</svg>