<svg xmlns="http://www.w3.org/2000/svg" width="24" height="24" viewBox="0 0 24 24" fill="currentColor"><path d="M19.27 5.33a17 17 0 0 0-4.21-1.31.07.07 0 0 0-.08.04c-.18.32-.39.74-.53 1.07a15.7 15.7 0 0 0-4.71 0c-.14-.34-.35-.75-.54-1.07a.08.08 0 0 0-.08-.04 17 17 0 0 0-4.2 1.31.07.07 0 0 0-.04.03A17.4 17.4 0 0 0 1.93 17a.08.08 0 0 0 .03.05 17 17 0 0 0 5.13 2.6.08.08 0 0 0 .08-.03c.4-.54.75-1.11 1.05-1.7a.08.08 0 0 0-.04-.1 11.2 11.2 0 0 1-1.6-.77.08.08 0 0 1 0-.13l.31-.25a.07.07 0 0 1 .08 0 12.18 12.18 0 0 0 10.36 0 .07.07 0 0 1 .08 0l.32.25a.08.08 0 0 1 0 .13c-.51.3-1.04.55-1.6.76a.08.08 0 0 0-.04.11c.31.6.66 1.16 1.05 1.7a.08.08 0 0 0 .08.03 17 17 0 0 0 5.13-2.6.08.08 0 0 0 .03-.05 17.27 17.27 0 0 0-2.95-11.64.06.06 0 0 0-.03-.03zM8.52 14.62c-1.01 0-1.85-.93-1.85-2.06 0-1.14.82-2.07 1.85-2.07 1.04 0 1.87.94 1.85 2.07 0 1.13-.82 2.06-1.85 2.06zm6.84 0c-1.01 0-1.85-.93-1.85-2.06 0-1.14.82-2.07 1.85-2.07 1.04 0 1.87.94 1.85 2.07 0 1.13-.81 2.06-1.85 2.06z"></path></svg>